#N canvas 316 22 1126 820 10;
#X obj 5 161 hip~ 200;
#X obj 5 44 *~ 0.1;
#X obj 5 67 sqrt~;
#X obj 5 -98 vline~;
#X obj 5 -32 cos~;
#X obj 5 -10 lop~ 0.1;
#X obj 5 -54 -~ 0.25;
#X obj 5 -76 *~ 0.5;
#X msg 5 -120 0 \, 1 500;
#X obj 5 12 *~ 5;
#N canvas 216 38 368 237 regular-roll 0;
#X obj 74 193 rzero~ 0.9;
#X obj -2 66 phasor~ 1;
#X obj -2 139 wrap~;
#X obj 51 139 wrap~;
#X obj 102 139 wrap~;
#X obj 155 138 wrap~;
#X obj 68 66 unpack f f f f f f f f;
#X msg 89 44 2 0.1 3 0.05 4.2 0.02 5.6 0.012;
#X msg 107 23 1.3 0.1 1.7 0.05 2.4 0.02 8.1 0.012;
#X obj 89 -2 loadbang;
#X text 179 2 roll pattern;
#X obj 74 216 outlet~;
#X obj -2 -2 inlet~ speed;
#X obj -2 119 *~;
#X obj 51 119 *~;
#X obj 102 119 *~;
#X obj 155 118 *~;
#X obj -2 160 *~;
#X obj 51 160 *~;
#X obj 102 160 *~;
#X obj 155 160 *~;
#X connect 0 0 11 0;
#X connect 1 0 13 0;
#X connect 1 0 14 0;
#X connect 1 0 15 0;
#X connect 1 0 16 0;
#X connect 2 0 17 0;
#X connect 3 0 18 0;
#X connect 4 0 19 0;
#X connect 5 0 20 0;
#X connect 6 0 13 1;
#X connect 6 1 17 1;
#X connect 6 2 14 1;
#X connect 6 3 18 1;
#X connect 6 4 15 1;
#X connect 6 5 19 1;
#X connect 6 6 16 1;
#X connect 6 7 20 1;
#X connect 7 0 6 0;
#X connect 8 0 6 0;
#X connect 9 0 7 0;
#X connect 12 0 1 0;
#X connect 13 0 2 0;
#X connect 14 0 3 0;
#X connect 15 0 4 0;
#X connect 16 0 5 0;
#X connect 17 0 0 0;
#X connect 18 0 0 0;
#X connect 19 0 0 0;
#X connect 20 0 0 0;
#X restore 58 45 pd regular-roll;
#N canvas 672 161 251 307 irregular-ground 0;
#X obj 18 -50 noise~;
#X obj 18 -13 max~ 0;
#X msg 938 99 0.54;
#X obj 19 109 samphold~;
#X obj 19 132 rzero~ 0.99;
#X obj 20 208 outlet~;
#X obj 141 6 phasor~ 12;
#X obj 76 56 +~;
#X obj 76 9 *~ 0.001;
#X obj 19 182 *~;
#X obj 142 -23 *~ 100;
#X obj 142 -70 inlet~ speed;
#X obj 19 155 *~ 0.05;
#X connect 0 0 1 0;
#X connect 0 0 8 0;
#X connect 1 0 3 0;
#X connect 3 0 4 0;
#X connect 4 0 12 0;
#X connect 6 0 7 1;
#X connect 7 0 3 1;
#X connect 8 0 7 0;
#X connect 9 0 5 0;
#X connect 10 0 6 0;
#X connect 11 0 10 0;
#X connect 11 0 9 1;
#X connect 12 0 9 0;
#X restore 58 102 pd irregular-ground;
#X obj 5 138 *~;
#X obj 58 77 *~ 0.5;
#N canvas 231 301 272 275 tincan 0;
#X obj 76 190 *~ 1000;
#X obj 76 232 *~ 0.4;
#X obj -2 0 inlet~;
#X obj 94 1 loadbang;
#X obj 76 253 outlet~;
#X msg 94 23 359 426 1748 3000 123;
#X obj 94 45 unpack f f f f f;
#X obj -2 135 bp~ 1 1;
#X obj 76 135 bp~ 1 1;
#X obj 143 136 bp~ 1 1;
#X obj 213 136 bp~ 1 1;
#X obj 76 157 *~ 0.3;
#X obj 213 157 *~ 0.2;
#X obj -2 158 *~ 0.2;
#X obj 143 157 *~ 0.3;
#X obj 76 211 clip~ -0.3 0.3;
#X connect 0 0 15 0;
#X connect 1 0 4 0;
#X connect 2 0 7 0;
#X connect 2 0 8 0;
#X connect 2 0 9 0;
#X connect 2 0 10 0;
#X connect 3 0 5 0;
#X connect 5 0 6 0;
#X connect 6 0 7 1;
#X connect 6 1 8 1;
#X connect 6 2 9 1;
#X connect 6 3 10 1;
#X connect 6 4 8 2;
#X connect 6 4 7 2;
#X connect 6 4 9 2;
#X connect 6 4 10 2;
#X connect 7 0 13 0;
#X connect 8 0 11 0;
#X connect 9 0 14 0;
#X connect 10 0 12 0;
#X connect 11 0 0 0;
#X connect 12 0 0 0;
#X connect 13 0 0 0;
#X connect 14 0 0 0;
#X connect 15 0 1 0;
#X coords 0 0 1 1 240 160 0;
#X restore 5 183 pd tincan;
#X obj 270 233 hip~ 200;
#X obj 270 116 *~ 0.1;
#X obj 270 139 sqrt~;
#X obj 270 -26 vline~;
#X obj 270 40 cos~;
#X obj 270 62 lop~ 0.1;
#X obj 270 18 -~ 0.25;
#X obj 270 -4 *~ 0.5;
#X msg 270 -48 0 \, 1 500;
#X obj 270 84 *~ 5;
#N canvas 80 354 668 395 regular-roll 1;
#X obj 74 193 rzero~ 0.9;
#X obj -2 66 phasor~ 1;
#X obj -2 139 wrap~;
#X obj 51 139 wrap~;
#X obj 102 139 wrap~;
#X obj 155 138 wrap~;
#X obj 68 66 unpack f f f f f f f f;
#X msg 89 44 2 0.1 3 0.05 4.2 0.02 5.6 0.012;
#X obj 89 -2 loadbang;
#X text 179 2 roll pattern;
#X obj 74 216 outlet~;
#X obj -2 -2 inlet~ speed;
#X obj -2 119 *~;
#X obj 51 119 *~;
#X obj 102 119 *~;
#X obj 155 118 *~;
#X obj -2 160 *~;
#X obj 51 160 *~;
#X obj 102 160 *~;
#X obj 155 160 *~;
#X msg 107 23 1 0 1 0 1;
#X obj 370 77 metro 10;
#X obj 370 52 tgl 15 0 empty empty empty 17 7 0 10 -262144 -1 -1 0
1;
#X obj 370 27 loadbang;
#X msg 372 176 set \$1 \$2 \$3 \$4 \$5 \$6 \$7;
#X obj 370 104 random 10;
#X floatatom 369 129 5 0 0 0 - - -;
#X connect 0 0 10 0;
#X connect 1 0 12 0;
#X connect 1 0 13 0;
#X connect 1 0 14 0;
#X connect 1 0 15 0;
#X connect 2 0 16 0;
#X connect 3 0 17 0;
#X connect 4 0 18 0;
#X connect 5 0 19 0;
#X connect 6 0 12 1;
#X connect 6 1 16 1;
#X connect 6 2 13 1;
#X connect 6 3 17 1;
#X connect 6 4 14 1;
#X connect 6 5 18 1;
#X connect 6 6 15 1;
#X connect 6 7 19 1;
#X connect 7 0 6 0;
#X connect 8 0 7 0;
#X connect 11 0 1 0;
#X connect 12 0 2 0;
#X connect 13 0 3 0;
#X connect 14 0 4 0;
#X connect 15 0 5 0;
#X connect 16 0 0 0;
#X connect 17 0 0 0;
#X connect 18 0 0 0;
#X connect 19 0 0 0;
#X connect 20 0 6 0;
#X connect 21 0 25 0;
#X connect 22 0 21 0;
#X connect 23 0 22 0;
#X connect 25 0 26 0;
#X restore 323 117 pd regular-roll;
#N canvas 672 161 251 307 irregular-ground 0;
#X obj 18 -50 noise~;
#X obj 18 -13 max~ 0;
#X msg 938 99 0.54;
#X obj 19 109 samphold~;
#X obj 19 132 rzero~ 0.99;
#X obj 20 208 outlet~;
#X obj 141 6 phasor~ 12;
#X obj 76 56 +~;
#X obj 76 9 *~ 0.001;
#X obj 19 182 *~;
#X obj 142 -23 *~ 100;
#X obj 142 -70 inlet~ speed;
#X obj 19 155 *~ 0.05;
#X connect 0 0 1 0;
#X connect 0 0 8 0;
#X connect 1 0 3 0;
#X connect 3 0 4 0;
#X connect 4 0 12 0;
#X connect 6 0 7 1;
#X connect 7 0 3 1;
#X connect 8 0 7 0;
#X connect 9 0 5 0;
#X connect 10 0 6 0;
#X connect 11 0 10 0;
#X connect 11 0 9 1;
#X connect 12 0 9 0;
#X restore 323 174 pd irregular-ground;
#X obj 270 210 *~;
#X obj 323 149 *~ 0.5;
#N canvas 49 404 272 275 tincan 0;
#X obj 76 190 *~ 1000;
#X obj 76 232 *~ 0.4;
#X obj -2 0 inlet~;
#X obj 94 1 loadbang;
#X obj 76 253 outlet~;
#X obj 94 45 unpack f f f f f;
#X obj -2 135 bp~ 1 1;
#X obj 76 135 bp~ 1 1;
#X obj 143 136 bp~ 1 1;
#X obj 213 136 bp~ 1 1;
#X obj 76 157 *~ 0.3;
#X obj 213 157 *~ 0.2;
#X obj -2 158 *~ 0.2;
#X obj 143 157 *~ 0.3;
#X obj 76 211 clip~ -0.3 0.3;
#X msg 94 23 359 426 1000 2000 123;
#X connect 0 0 14 0;
#X connect 1 0 4 0;
#X connect 2 0 6 0;
#X connect 2 0 7 0;
#X connect 2 0 8 0;
#X connect 2 0 9 0;
#X connect 3 0 15 0;
#X connect 5 0 6 1;
#X connect 5 1 7 1;
#X connect 5 2 8 1;
#X connect 5 3 9 1;
#X connect 5 4 7 2;
#X connect 5 4 6 2;
#X connect 5 4 8 2;
#X connect 5 4 9 2;
#X connect 6 0 12 0;
#X connect 7 0 10 0;
#X connect 8 0 13 0;
#X connect 9 0 11 0;
#X connect 10 0 0 0;
#X connect 11 0 0 0;
#X connect 12 0 0 0;
#X connect 13 0 0 0;
#X connect 14 0 1 0;
#X connect 15 0 5 0;
#X coords 0 0 1 1 240 160 0;
#X restore 270 255 pd tincan;
#X obj 601 350 hip~ 200;
#X obj 601 233 *~ 0.1;
#X obj 601 256 sqrt~;
#X obj 601 91 vline~;
#X obj 601 157 cos~;
#X obj 601 179 lop~ 0.1;
#X obj 601 135 -~ 0.25;
#X obj 601 113 *~ 0.5;
#X msg 601 69 0 \, 1 500;
#X obj 601 201 *~ 5;
#N canvas 216 38 368 237 regular-roll 0;
#X obj 74 193 rzero~ 0.9;
#X obj -2 66 phasor~ 1;
#X obj -2 139 wrap~;
#X obj 51 139 wrap~;
#X obj 102 139 wrap~;
#X obj 155 138 wrap~;
#X obj 68 66 unpack f f f f f f f f;
#X msg 89 44 2 0.1 3 0.05 4.2 0.02 5.6 0.012;
#X msg 107 23 1.3 0.1 1.7 0.05 2.4 0.02 8.1 0.012;
#X obj 89 -2 loadbang;
#X text 179 2 roll pattern;
#X obj 74 216 outlet~;
#X obj -2 -2 inlet~ speed;
#X obj -2 119 *~;
#X obj 51 119 *~;
#X obj 102 119 *~;
#X obj 155 118 *~;
#X obj -2 160 *~;
#X obj 51 160 *~;
#X obj 102 160 *~;
#X obj 155 160 *~;
#X connect 0 0 11 0;
#X connect 1 0 13 0;
#X connect 1 0 14 0;
#X connect 1 0 15 0;
#X connect 1 0 16 0;
#X connect 2 0 17 0;
#X connect 3 0 18 0;
#X connect 4 0 19 0;
#X connect 5 0 20 0;
#X connect 6 0 13 1;
#X connect 6 1 17 1;
#X connect 6 2 14 1;
#X connect 6 3 18 1;
#X connect 6 4 15 1;
#X connect 6 5 19 1;
#X connect 6 6 16 1;
#X connect 6 7 20 1;
#X connect 7 0 6 0;
#X connect 8 0 6 0;
#X connect 9 0 7 0;
#X connect 12 0 1 0;
#X connect 13 0 2 0;
#X connect 14 0 3 0;
#X connect 15 0 4 0;
#X connect 16 0 5 0;
#X connect 17 0 0 0;
#X connect 18 0 0 0;
#X connect 19 0 0 0;
#X connect 20 0 0 0;
#X restore 654 234 pd regular-roll;
#N canvas 672 161 276 427 irregular-ground 0;
#X obj 18 -50 noise~;
#X obj 18 -13 max~ 0;
#X msg 938 99 0.54;
#X obj 19 109 samphold~;
#X obj 19 132 rzero~ 0.99;
#X obj 20 208 outlet~;
#X obj 141 6 phasor~ 12;
#X obj 76 56 +~;
#X obj 76 9 *~ 0.001;
#X obj 19 182 *~;
#X obj 142 -23 *~ 100;
#X obj 142 -70 inlet~ speed;
#X obj 19 155 *~ 0.05;
#X connect 0 0 1 0;
#X connect 0 0 8 0;
#X connect 1 0 3 0;
#X connect 3 0 4 0;
#X connect 4 0 12 0;
#X connect 6 0 7 1;
#X connect 7 0 3 1;
#X connect 8 0 7 0;
#X connect 9 0 5 0;
#X connect 10 0 6 0;
#X connect 11 0 10 0;
#X connect 11 0 9 1;
#X connect 12 0 9 0;
#X restore 654 291 pd irregular-ground;
#X obj 601 327 *~;
#X obj 654 266 *~ 0.5;
#N canvas 145 341 272 275 tincan 0;
#X obj 76 190 *~ 1000;
#X obj 76 232 *~ 0.4;
#X obj -2 0 inlet~;
#X obj 94 1 loadbang;
#X obj 76 253 outlet~;
#X obj 94 45 unpack f f f f f;
#X obj -2 135 bp~ 1 1;
#X obj 76 135 bp~ 1 1;
#X obj 143 136 bp~ 1 1;
#X obj 213 136 bp~ 1 1;
#X obj 76 157 *~ 0.3;
#X obj 213 157 *~ 0.2;
#X obj -2 158 *~ 0.2;
#X obj 143 157 *~ 0.3;
#X obj 76 211 clip~ -0.3 0.3;
#X msg 94 23 359 226 500 900 123;
#X connect 0 0 14 0;
#X connect 1 0 4 0;
#X connect 2 0 6 0;
#X connect 2 0 7 0;
#X connect 2 0 8 0;
#X connect 2 0 9 0;
#X connect 3 0 15 0;
#X connect 5 0 6 1;
#X connect 5 1 7 1;
#X connect 5 2 8 1;
#X connect 5 3 9 1;
#X connect 5 4 7 2;
#X connect 5 4 6 2;
#X connect 5 4 8 2;
#X connect 5 4 9 2;
#X connect 6 0 12 0;
#X connect 7 0 10 0;
#X connect 8 0 13 0;
#X connect 9 0 11 0;
#X connect 10 0 0 0;
#X connect 11 0 0 0;
#X connect 12 0 0 0;
#X connect 13 0 0 0;
#X connect 14 0 1 0;
#X connect 15 0 5 0;
#X coords 0 0 1 1 240 160 0;
#X restore 601 372 pd tincan;
#X obj 336 447 output~;
#X obj 601 396 nozip;
#X obj 696 377 hsl 128 15 0 2 0 0 empty empty empty -2 -8 0 10 -262144
-1 -1 12700 1;
#X obj 269 282 nozip;
#X obj 364 263 hsl 128 15 0 2 0 0 empty empty empty -2 -8 0 10 -262144
-1 -1 12700 1;
#X obj 6 215 nozip;
#X obj 101 196 hsl 128 15 0 2 0 0 empty empty empty -2 -8 0 10 -262144
-1 -1 12700 1;
#X obj 810 244 hip~ 200;
#X obj 810 127 *~ 0.1;
#X obj 810 150 sqrt~;
#X obj 810 -15 vline~;
#X obj 810 51 cos~;
#X obj 810 73 lop~ 0.1;
#X obj 810 29 -~ 0.25;
#X obj 810 7 *~ 0.5;
#X msg 810 -37 0 \, 1 500;
#X obj 810 95 *~ 5;
#N canvas 216 38 368 237 regular-roll 0;
#X obj 74 193 rzero~ 0.9;
#X obj -2 66 phasor~ 1;
#X obj -2 139 wrap~;
#X obj 51 139 wrap~;
#X obj 102 139 wrap~;
#X obj 155 138 wrap~;
#X obj 68 66 unpack f f f f f f f f;
#X msg 89 44 2 0.1 3 0.05 4.2 0.02 5.6 0.012;
#X msg 107 23 1.3 0.1 1.7 0.05 2.4 0.02 8.1 0.012;
#X obj 89 -2 loadbang;
#X text 179 2 roll pattern;
#X obj 74 216 outlet~;
#X obj -2 -2 inlet~ speed;
#X obj -2 119 *~;
#X obj 51 119 *~;
#X obj 102 119 *~;
#X obj 155 118 *~;
#X obj -2 160 *~;
#X obj 51 160 *~;
#X obj 102 160 *~;
#X obj 155 160 *~;
#X connect 0 0 11 0;
#X connect 1 0 13 0;
#X connect 1 0 14 0;
#X connect 1 0 15 0;
#X connect 1 0 16 0;
#X connect 2 0 17 0;
#X connect 3 0 18 0;
#X connect 4 0 19 0;
#X connect 5 0 20 0;
#X connect 6 0 13 1;
#X connect 6 1 17 1;
#X connect 6 2 14 1;
#X connect 6 3 18 1;
#X connect 6 4 15 1;
#X connect 6 5 19 1;
#X connect 6 6 16 1;
#X connect 6 7 20 1;
#X connect 7 0 6 0;
#X connect 8 0 6 0;
#X connect 9 0 7 0;
#X connect 12 0 1 0;
#X connect 13 0 2 0;
#X connect 14 0 3 0;
#X connect 15 0 4 0;
#X connect 16 0 5 0;
#X connect 17 0 0 0;
#X connect 18 0 0 0;
#X connect 19 0 0 0;
#X connect 20 0 0 0;
#X restore 863 128 pd regular-roll;
#N canvas 672 161 276 427 irregular-ground 0;
#X obj 18 -50 noise~;
#X obj 18 -13 max~ 0;
#X msg 938 99 0.54;
#X obj 19 109 samphold~;
#X obj 19 132 rzero~ 0.99;
#X obj 20 208 outlet~;
#X obj 141 6 phasor~ 12;
#X obj 76 56 +~;
#X obj 76 9 *~ 0.001;
#X obj 19 182 *~;
#X obj 142 -23 *~ 100;
#X obj 142 -70 inlet~ speed;
#X obj 19 155 *~ 0.05;
#X connect 0 0 1 0;
#X connect 0 0 8 0;
#X connect 1 0 3 0;
#X connect 3 0 4 0;
#X connect 4 0 12 0;
#X connect 6 0 7 1;
#X connect 7 0 3 1;
#X connect 8 0 7 0;
#X connect 9 0 5 0;
#X connect 10 0 6 0;
#X connect 11 0 10 0;
#X connect 11 0 9 1;
#X connect 12 0 9 0;
#X restore 863 185 pd irregular-ground;
#X obj 810 221 *~;
#X obj 863 160 *~ 0.5;
#N canvas 145 341 272 275 tincan 0;
#X obj 76 190 *~ 1000;
#X obj 76 232 *~ 0.4;
#X obj -2 0 inlet~;
#X obj 94 1 loadbang;
#X obj 76 253 outlet~;
#X obj 94 45 unpack f f f f f;
#X obj -2 135 bp~ 1 1;
#X obj 76 135 bp~ 1 1;
#X obj 143 136 bp~ 1 1;
#X obj 213 136 bp~ 1 1;
#X obj 76 157 *~ 0.3;
#X obj 213 157 *~ 0.2;
#X obj -2 158 *~ 0.2;
#X obj 143 157 *~ 0.3;
#X obj 76 211 clip~ -0.3 0.3;
#X msg 94 23 359 800 500 1900 577;
#X connect 0 0 14 0;
#X connect 1 0 4 0;
#X connect 2 0 6 0;
#X connect 2 0 7 0;
#X connect 2 0 8 0;
#X connect 2 0 9 0;
#X connect 3 0 15 0;
#X connect 5 0 6 1;
#X connect 5 1 7 1;
#X connect 5 2 8 1;
#X connect 5 3 9 1;
#X connect 5 4 7 2;
#X connect 5 4 6 2;
#X connect 5 4 8 2;
#X connect 5 4 9 2;
#X connect 6 0 12 0;
#X connect 7 0 10 0;
#X connect 8 0 13 0;
#X connect 9 0 11 0;
#X connect 10 0 0 0;
#X connect 11 0 0 0;
#X connect 12 0 0 0;
#X connect 13 0 0 0;
#X connect 14 0 1 0;
#X connect 15 0 5 0;
#X coords 0 0 1 1 240 160 0;
#X restore 810 266 pd tincan;
#X obj 810 290 nozip;
#X obj 905 271 hsl 128 15 0 2 0 0 empty empty empty -2 -8 0 10 -262144
-1 -1 12700 1;
#X obj 336 408 freeverb~;
#X connect 0 0 14 0;
#X connect 1 0 2 0;
#X connect 2 0 12 0;
#X connect 3 0 7 0;
#X connect 4 0 5 0;
#X connect 5 0 9 0;
#X connect 6 0 4 0;
#X connect 7 0 6 0;
#X connect 8 0 3 0;
#X connect 9 0 1 0;
#X connect 9 0 10 0;
#X connect 9 0 13 0;
#X connect 10 0 12 1;
#X connect 11 0 12 1;
#X connect 12 0 0 0;
#X connect 13 0 11 0;
#X connect 14 0 50 0;
#X connect 15 0 29 0;
#X connect 16 0 17 0;
#X connect 17 0 27 0;
#X connect 18 0 22 0;
#X connect 19 0 20 0;
#X connect 20 0 24 0;
#X connect 21 0 19 0;
#X connect 22 0 21 0;
#X connect 23 0 18 0;
#X connect 24 0 16 0;
#X connect 24 0 25 0;
#X connect 24 0 28 0;
#X connect 25 0 27 1;
#X connect 26 0 27 1;
#X connect 27 0 15 0;
#X connect 28 0 26 0;
#X connect 29 0 48 0;
#X connect 30 0 44 0;
#X connect 31 0 32 0;
#X connect 32 0 42 0;
#X connect 33 0 37 0;
#X connect 34 0 35 0;
#X connect 35 0 39 0;
#X connect 36 0 34 0;
#X connect 37 0 36 0;
#X connect 38 0 33 0;
#X connect 39 0 31 0;
#X connect 39 0 40 0;
#X connect 39 0 43 0;
#X connect 40 0 42 1;
#X connect 41 0 42 1;
#X connect 42 0 30 0;
#X connect 43 0 41 0;
#X connect 44 0 46 0;
#X connect 46 0 69 1;
#X connect 47 0 46 1;
#X connect 48 0 69 0;
#X connect 49 0 48 1;
#X connect 50 0 69 0;
#X connect 51 0 50 1;
#X connect 52 0 66 0;
#X connect 53 0 54 0;
#X connect 54 0 64 0;
#X connect 55 0 59 0;
#X connect 56 0 57 0;
#X connect 57 0 61 0;
#X connect 58 0 56 0;
#X connect 59 0 58 0;
#X connect 60 0 55 0;
#X connect 61 0 53 0;
#X connect 61 0 62 0;
#X connect 61 0 65 0;
#X connect 62 0 64 1;
#X connect 63 0 64 1;
#X connect 64 0 52 0;
#X connect 65 0 63 0;
#X connect 66 0 67 0;
#X connect 67 0 69 1;
#X connect 68 0 67 1;
#X connect 69 0 45 0;
#X connect 69 1 45 1;
